<svg xmlns="http://www.w3.org/2000/svg" viewBox="0 0 642.65 131.01"><defs><style>.cls-1{fill:#fff;}</style></defs><g id="Layer_2" data-name="Layer 2"><g id="Layer_1-2" data-name="Layer 1"><path class="cls-1" d="M60.9,56.24A12.42,12.42,0,1,0,48.44,43.87,12.45,12.45,0,0,0,60.9,56.24Z"/><path class="cls-1" d="M75.8,58S61.16,76.54,33.92,69.12l0,0C12.51,58.25.27,77.31,0,77.68,3,107.55,29.21,131,61.09,131,95,131,122.5,104.6,122.5,72.12A43.83,43.83,0,0,0,121,58.2S98,34.3,75.8,58Z"/><path class="cls-1" d="M63.42,13.29c4,0,7.27-3,7.24-6.69S67.38,0,63.36,0a7,7,0,0,0-7.25,6.68C56.14,10.34,59.4,13.29,63.42,13.29Z"/><path class="cls-1" d="M92.84,35.4c4,0,7.26-3,7.22-6.65s-3.28-6.64-7.28-6.62-7.24,3-7.22,6.66S88.83,35.42,92.84,35.4Z"/><path class="cls-1" d="M156.42,42.67l-21.11,59.24h13l4-12.17h21.79L178,101.91h13.4l-21-59.24Zm-.77,36.86,7.69-23.29,7.48,23.29Z"/><rect class="cls-1" x="198.19" y="42.31" width="11.6" height="10.58"/><rect class="cls-1" x="198.19" y="58.15" width="11.6" height="43.76"/><path class="cls-1" d="M244.67,57.09a12.67,12.67,0,0,0-8.37,2.67,25.25,25.25,0,0,0-4.62,6V58.15H220.77v43.76h11.52V81c0-3.5.43-6.1,1.33-7.8,1.59-3,4.64-4.5,9.28-4.5.32,0,.8,0,1.37,0s1.18.07,1.91.17V57.19c-.5,0-.82-.07-1-.07A2.64,2.64,0,0,0,244.67,57.09Z"/><path class="cls-1" d="M317.57,72.5c-2.27-1.79-5.67-3.23-10.24-4.29l-10.4-2.47a34.47,34.47,0,0,1-7.86-2.44,5.09,5.09,0,0,1-2.89-4.72,6.06,6.06,0,0,1,2.95-5.39,13.84,13.84,0,0,1,7.8-1.94,16.24,16.24,0,0,1,7.38,1.51,8.41,8.41,0,0,1,4.77,7.55H321c-.21-6.26-2.53-11.09-7-14.39S304.11,41,297.78,41c-7.54,0-13.28,1.74-17.16,5.25a16.93,16.93,0,0,0-5.88,13.21c0,5.82,2,10.08,6,12.81,2.35,1.64,6.69,3.17,13,4.54l6.39,1.41A28.42,28.42,0,0,1,308.33,81,5.06,5.06,0,0,1,311,85.52c0,3.35-1.78,5.64-5.3,6.87a22.9,22.9,0,0,1-7.27,1c-5,0-8.49-1.21-10.54-3.64a12.22,12.22,0,0,1-2.26-6.08H273.79c0,6.15,2.21,11,6.7,14.52s10.59,5.28,18.38,5.28,13.55-1.79,17.72-5.35a17.09,17.09,0,0,0,6.26-13.48C322.85,79.32,321.1,75.29,317.57,72.5Z"/><path class="cls-1" d="M366.71,65.47A17.91,17.91,0,0,0,359.17,59,24.78,24.78,0,0,0,348.84,57c-6.4,0-11.62,2-15.64,6.07s-6.05,9.85-6.05,17.43c0,8.11,2.22,13.93,6.7,17.55a23.78,23.78,0,0,0,15.42,5.37c7.07,0,12.54-2.14,16.49-6.37,2.5-2.69,3.9-5.32,4.23-7.93H358.3a9.68,9.68,0,0,1-2.36,3,9.86,9.86,0,0,1-6.37,2,11.77,11.77,0,0,1-6.32-1.63c-2.84-1.78-4.37-4.86-4.55-9.25h31.89a59.26,59.26,0,0,0-.38-8.69A22,22,0,0,0,366.71,65.47ZM339,75.7A12,12,0,0,1,342,68.9a9.16,9.16,0,0,1,6.86-2.5,10.14,10.14,0,0,1,6.78,2.36,9.54,9.54,0,0,1,3,6.94Z"/><rect class="cls-1" x="376.61" y="42.67" width="11.46" height="59.24"/><path class="cls-1" d="M435.73,98.91a6.61,6.61,0,0,1-.67-3.07c0-2-.09-3.66-.09-5.06V70.7c0-5.27-1.85-8.86-5.61-10.77a27.69,27.69,0,0,0-12.82-2.84c-7.39,0-12.63,1.93-15.65,5.79a16.6,16.6,0,0,0-3.22,9.41h11a8.56,8.56,0,0,1,1.64-4q1.68-2,5.81-2a11.93,11.93,0,0,1,5.56,1,3.9,3.9,0,0,1,1.9,3.73c0,1.44-.82,2.54-2.49,3.26a18.32,18.32,0,0,1-4.55,1l-3.91.49c-4.45.56-7.84,1.51-10.12,2.82-4.18,2.41-6.28,6.32-6.28,11.7,0,4.13,1.3,7.35,3.9,9.6a14.28,14.28,0,0,0,9.86,3.4,16.64,16.64,0,0,0,8.42-2.12,22.14,22.14,0,0,0,5.48-4.4c.09,1,.21,1.9.33,2.67a14.73,14.73,0,0,0,.72,2.49h12.46v-1.68A4.46,4.46,0,0,1,435.73,98.91Zm-12.17-14c-.07,3.8-1.18,6.45-3.27,7.91A12.09,12.09,0,0,1,413.37,95a6.28,6.28,0,0,1-4-1.29,5.17,5.17,0,0,1-1.64-4.23,5.26,5.26,0,0,1,2.71-4.87A17,17,0,0,1,415.68,83l2.6-.47a16.71,16.71,0,0,0,3.06-.82,10.8,10.8,0,0,0,2.22-1.08Z"/><path class="cls-1" d="M480.29,60.63c-2.85-2.37-6.55-3.54-11.06-3.54a14.35,14.35,0,0,0-8.92,2.66,19,19,0,0,0-4.16,4.85V58.2H445.06v43.71H456.5V78.2a17.39,17.39,0,0,1,1.12-6.66c1.46-3.29,4.09-4.93,7.93-4.93,3.14,0,5.28,1.13,6.38,3.37a11.94,11.94,0,0,1,.95,5.28v26.65h11.7V72.42C484.58,67,483.16,63,480.29,60.63Z"/><path class="cls-1" d="M523.64,64.43a13.68,13.68,0,0,0-6.75-6.33,14.43,14.43,0,0,0-5.74-1c-5.91,0-10.51,2.2-13.73,6.65s-4.88,9.9-4.88,16.4q0,10.13,5.06,16t13.45,5.92a14.15,14.15,0,0,0,8.89-2.63,13.6,13.6,0,0,0,3.53-4.2V98.1c0,4.16-.46,7.15-1.37,8.92q-2.07,4.14-8.26,4.14-4.38,0-6.24-1.58a5.07,5.07,0,0,1-1.55-2.88H493.59a12.11,12.11,0,0,0,5.86,9.84c3.54,2.18,8.11,3.31,13.66,3.31,9.29,0,15.56-2.49,18.83-7.42q2.88-4.31,2.87-12.76V58.15H523.64Zm-2.83,25.06a9,9,0,0,1-6.78,3,8.35,8.35,0,0,1-8.3-5.55,16.67,16.67,0,0,1-1.3-6.8,19.64,19.64,0,0,1,1.21-7.42,8.27,8.27,0,0,1,8.3-5.67,8.43,8.43,0,0,1,7,3.27q2.65,3.23,2.66,9.47C523.57,84.24,522.64,87.46,520.81,89.49Z"/><path class="cls-1" d="M565.18,56.69c-7.56,0-13.17,2.34-16.83,7a25.54,25.54,0,0,0-5.57,16.45,25.24,25.24,0,0,0,5.57,16.45q5.49,6.85,16.83,6.85c7.51,0,13.14-2.28,16.81-6.85a25.23,25.23,0,0,0,5.56-16.45A25.53,25.53,0,0,0,582,63.64C578.32,59,572.69,56.69,565.18,56.69Zm7.67,33.54a10.16,10.16,0,0,1-15.47,0c-1.78-2.38-2.7-5.76-2.7-10.14s.92-7.78,2.7-10.14a10.2,10.2,0,0,1,15.47,0c1.79,2.36,2.68,5.75,2.68,10.14S574.64,87.85,572.85,90.23Z"/><path class="cls-1" d="M619.51,57.09a12.61,12.61,0,0,0-8.34,2.67,24.49,24.49,0,0,0-4.62,6V58.15H595.62v43.76h11.52V81q0-5.25,1.34-7.8c1.6-3,4.68-4.5,9.28-4.5.36,0,.8,0,1.36,0s1.21.07,1.93.17V57.19c-.51,0-.85-.07-1-.07A2.92,2.92,0,0,0,619.51,57.09Z"/><path class="cls-1" d="M642.17,60.78a6,6,0,0,0-1.29-1.92,6,6,0,0,0-8.55,0A6,6,0,0,0,631,65.49a6,6,0,0,0,3.21,3.21,6,6,0,0,0,4.71,0,6,6,0,0,0,3.21-3.21,6,6,0,0,0,0-4.71Zm-5.57,7.64a5.29,5.29,0,1,1,5.29-5.29A5.29,5.29,0,0,1,636.6,68.42Z"/><path class="cls-1" d="M638.87,64.29a2.51,2.51,0,0,0-.69-1,1.84,1.84,0,0,0,1-1.7,1.78,1.78,0,0,0-.76-1.5,3.36,3.36,0,0,0-2-.53,11,11,0,0,0-1.85.18l-.1,0v6.89h1.14V63.74h1c.83,0,1.38.95,1.62,2.83l0,.11h1.14l0-.14A9.76,9.76,0,0,0,638.87,64.29Zm-1.16-1.82a1.92,1.92,0,0,1-1.13.27h-1V60.65q.33,0,.81,0c1.09,0,1.62.35,1.62,1.06A.91.91,0,0,1,637.71,62.47Z"/></g></g></svg>